<?xml version="1.0" standalone="no"?><svg xmlns="http://www.w3.org/2000/svg" viewBox="0 0 1440 320"><path fill="#B7EC73" fill-opacity="1" d="M0,224L24,213.3C48,203,96,181,144,165.3C192,149,240,139,288,165.3C336,192,384,256,432,272C480,288,528,256,576,240C624,224,672,224,720,208C768,192,816,160,864,154.7C912,149,960,171,1008,186.7C1056,203,1104,213,1152,224C1200,235,1248,245,1296,256C1344,267,1392,277,1416,282.7L1440,288L1440,320L1416,320C1392,320,1344,320,1296,320C1248,320,1200,320,1152,320C1104,320,1056,320,1008,320C960,320,912,320,864,320C816,320,768,320,720,320C672,320,624,320,576,320C528,320,480,320,432,320C384,320,336,320,288,320C240,320,192,320,144,320C96,320,48,320,24,320L0,320Z"></path></svg>