<?xml version="1.0" standalone="no"?><svg xmlns="http://www.w3.org/2000/svg" viewBox="0 0 1440 320"><path fill="#FFD399" fill-opacity="1" d="M0,64L30,101.3C60,139,120,213,180,218.7C240,224,300,160,360,138.7C420,117,480,139,540,170.7C600,203,660,245,720,250.7C780,256,840,224,900,229.3C960,235,1020,277,1080,272C1140,267,1200,213,1260,197.3C1320,181,1380,203,1410,213.3L1440,224L1440,320L1410,320C1380,320,1320,320,1260,320C1200,320,1140,320,1080,320C1020,320,960,320,900,320C840,320,780,320,720,320C660,320,600,320,540,320C480,320,420,320,360,320C300,320,240,320,180,320C120,320,60,320,30,320L0,320Z"></path></svg>